<svg xmlns="http://www.w3.org/2000/svg" viewBox="0 0 51 70.16">
  <style>
    .b-mark  { fill: #ffffff; }
    .b-accent { fill: #d6b37f; }
    @media (prefers-color-scheme: light) {
      .b-mark { fill: #000000; }
    }
  </style>
  <!-- B letterform -->
  <path class="b-mark" d="M48.62,42.75c-1.42-2.44-3.24-4.33-5.47-5.67-2.23-1.34-4.55-2.07-6.96-2.2v-.69c2.23-.52,4.23-1.39,6.02-2.61,1.79-1.22,3.21-2.81,4.28-4.78,1.07-1.97,1.47-4.25,1.61-6.46.44-7.27-2.98-14.78-9.75-18.01C35.08.78,31,0,26.09,0h-13.87v12.14h12.58c3.66,0,6.42.85,8.28,2.56,1.86,1.71,2.79,3.89,2.79,6.54,0,2.01-.5,3.75-1.49,5.22-.99,1.46-2.34,2.59-4.05,3.39-1.71.79-3.65,1.19-5.81,1.19h-12.31V12.14H0v58.03h27.5c5.22,0,9.54-.81,12.97-2.43,3.43-1.62,6-3.83,7.71-6.64,1.71-2.81,2.56-5.98,2.56-9.52s-.71-6.39-2.13-8.83M35.35,57.35c-2,1.74-5.26,2.61-9.77,2.61h-13.36v-20.09h13.77c2.53,0,4.72.47,6.57,1.42,1.85.95,3.27,2.24,4.28,3.87,1.01,1.63,1.51,3.47,1.51,5.51,0,2.72-1,4.94-3,6.68"/>
  <!-- Gold accent -->
  <path class="b-accent" d="M.08,12.14h-.08V0h12.22C7.48,4.74,4.82,7.4.08,12.14"/>
</svg>
