<?xml version="1.0" encoding="UTF-8"?>
<svg id="Layer_2" data-name="Layer 2" xmlns="http://www.w3.org/2000/svg" viewBox="0 0 187.5 70.16">
  <defs>
    <style>
      .cls-1 {
        fill: #d6b37f;
      }

      .cls-1, .cls-2 {
        stroke-width: 0px;
      }

      .cls-2 {
        fill: #fff;
      }
    </style>
  </defs>
  <g id="Layer_1-2" data-name="Layer 1">
    <g>
      <path class="cls-2" d="M166.9,10.96c-1.83-3.4-4.53-6.08-8.1-8.03C155.23.98,150.84,0,145.62,0h-25.49v70.16h12.22v-25.04h13.09c5.25,0,9.67-.98,13.27-2.93,3.6-1.95,6.32-4.62,8.17-8.01,1.85-3.39,2.77-7.26,2.77-11.62s-.92-8.2-2.75-11.6M155.76,29.01c-.93,1.89-2.38,3.37-4.35,4.44-1.97,1.07-4.49,1.6-7.57,1.6h-11.49V10.25h11.4c3.11,0,5.66.52,7.64,1.56,1.98,1.04,3.44,2.49,4.37,4.35.93,1.86,1.4,4,1.4,6.41s-.47,4.56-1.4,6.45"/>
      <path class="cls-2" d="M105.82,59.99l-2.14-2.51-7.21-8.43-12.55-14.69-2.22-2.59c-1.43-1.69-2.73-3.25-3.89-4.69-.23-.27-.45-.54-.66-.81-1.33-1.65-2.38-3.22-3.14-4.71-.77-1.5-1.15-3.02-1.15-4.57,0-1.41.31-2.63.92-3.67,0,0,0,0,.01,0,.61-1.03,1.46-1.84,2.58-2.44,1.11-.59,2.4-.89,3.86-.89,2.17,0,3.86.61,5.08,1.81,1.22,1.21,1.83,2.7,1.83,4.46,0,1.22-.27,2.33-.78,3.32-.52.99-1.2,1.89-2.04,2.67-.84.79-1.7,1.51-2.58,2.15l-.89.61c1.1,1.35,2.33,2.81,3.65,4.37l2.4,2.81,1.39-1.02c1.83-1.34,3.41-2.79,4.75-4.34,1.35-1.55,2.4-3.25,3.16-5.08.77-1.82,1.15-3.78,1.15-5.85,0-2.9-.71-5.53-2.11-7.88-1.41-2.35-3.39-4.22-5.97-5.65-2.58-1.42-5.64-2.13-9.18-2.13s-6.74.72-9.43,2.17c-2.69,1.45-4.76,3.43-6.24,5.95-.89,1.5-1.5,3.12-1.86,4.85-.25,1.17-.37,2.4-.37,3.68,0,2.87.57,5.51,1.71,7.92,1.15,2.41,2.63,4.74,4.46,6.98.3.37.6.73.91,1.11,1.55,1.9,3.19,3.87,4.9,5.91l1.4,1.61,14.23,16.32,6.52,7.48.59.68,4.58,5.26h12.98l-8.69-10.18ZM86.6,58.64c-.06.03-.14.07-.21.1-2.42,1.11-4.92,1.67-7.48,1.67-2.14,0-4.01-.39-5.63-1.16-1.61-.78-2.87-1.88-3.77-3.3-.91-1.42-1.35-3.07-1.35-4.96s.51-3.59,1.53-5.08c.71-1.05,1.71-2.13,2.99-3.23l-1.26-1.44-.02-.03-.03-.03c-1.74-2.07-3.44-4.11-5.05-6.08-1.28.99-2.47,1.97-3.57,2.95-2.02,1.77-3.58,3.71-4.69,5.83-1.11,2.12-1.67,4.59-1.67,7.39,0,3.51.9,6.7,2.7,9.56,1.79,2.87,4.38,5.14,7.75,6.82,3.37,1.67,7.36,2.51,11.96,2.51,3.14,0,6.34-.52,9.59-1.55,1.77-.57,3.42-1.31,4.95-2.23l-6.75-7.74ZM99.33,37.17c0,2.92-.41,5.62-1.24,8.1l7.69,8.99c.94-1.72,1.74-3.68,2.41-5.89.95-3.17,1.43-6.91,1.43-11.21h-10.29Z"/>
      <path class="cls-2" d="M48.62,42.75c-1.42-2.44-3.24-4.33-5.47-5.67-2.23-1.34-4.55-2.07-6.96-2.2v-.69c2.23-.52,4.23-1.39,6.02-2.61,1.79-1.22,3.21-2.81,4.28-4.78,1.07-1.97,1.47-4.25,1.61-6.46.44-7.27-2.98-14.78-9.75-18.01C35.08.78,31,0,26.09,0h-13.87v12.14h12.58c3.66,0,6.42.85,8.28,2.56,1.86,1.71,2.79,3.89,2.79,6.54,0,2.01-.5,3.75-1.49,5.22-.99,1.46-2.34,2.59-4.05,3.39-1.71.79-3.65,1.19-5.81,1.19h-12.31V12.14H0v58.03h27.5c5.22,0,9.54-.81,12.97-2.43,3.43-1.62,6-3.83,7.71-6.64,1.71-2.81,2.56-5.98,2.56-9.52s-.71-6.39-2.13-8.83M35.35,57.35c-2,1.74-5.26,2.61-9.77,2.61h-13.36v-20.09h13.77c2.53,0,4.72.47,6.57,1.42,1.85.95,3.27,2.24,4.28,3.87,1.01,1.63,1.51,3.47,1.51,5.51,0,2.72-1,4.94-3,6.68"/>
      <path class="cls-1" d="M.08,12.14h-.08V0h12.22C7.48,4.74,4.82,7.4.08,12.14"/>
      <path class="cls-2" d="M181.34,7.99c-.2-.09-.45-.13-.75-.13h-1.07v2.24h1.07c.31,0,.56-.04.75-.12.2-.08.34-.21.44-.37.1-.16.15-.37.15-.61s-.05-.45-.15-.62c-.1-.17-.24-.29-.44-.38"/>
      <path class="cls-2" d="M180.44,3.21c-3.89,0-7.05,3.16-7.05,7.05s3.16,7.05,7.05,7.05,7.05-3.16,7.05-7.05-3.16-7.05-7.05-7.05M182.08,13.9l-1.39-2.59h-1.17v2.59h-1.49v-7.27h2.84c.55,0,1.02.1,1.41.29.39.19.68.47.89.82.2.35.31.77.31,1.25s-.1.89-.31,1.24c-.21.35-.51.61-.9.8-.03.01-.06.02-.08.03l1.55,2.84h-1.65Z"/>
    </g>
  </g>
</svg>